<svg xmlns="http://www.w3.org/2000/svg" viewBox="0 0 900 560" role="img" aria-labelledby="title desc">
  <title id="title">Fragile parcel packaging supplies</title>
  <desc id="desc">A courier packing scene with cardboard boxes, bubble wrap, tape, and fragile parcel protection.</desc>
  <defs>
    <linearGradient id="bg" x1="0" x2="1" y1="0" y2="1">
      <stop offset="0" stop-color="#edf4ff"/>
      <stop offset="0.52" stop-color="#fff7ed"/>
      <stop offset="1" stop-color="#e0f2fe"/>
    </linearGradient>
    <linearGradient id="box" x1="0" x2="1" y1="0" y2="1">
      <stop offset="0" stop-color="#d99a4e"/>
      <stop offset="1" stop-color="#a86427"/>
    </linearGradient>
    <linearGradient id="boxLight" x1="0" x2="1" y1="0" y2="1">
      <stop offset="0" stop-color="#f0bd72"/>
      <stop offset="1" stop-color="#c77d32"/>
    </linearGradient>
    <filter id="shadow" x="-20%" y="-20%" width="140%" height="140%">
      <feDropShadow dx="0" dy="16" stdDeviation="18" flood-color="#0f172a" flood-opacity="0.18"/>
    </filter>
  </defs>

  <rect width="900" height="560" fill="url(#bg)"/>
  <path d="M0 391c117-49 219-61 306-36 106 31 194 24 291-22 117-56 216-56 303 0v227H0z" fill="#dbeafe" opacity="0.6"/>
  <path d="M0 432c104-22 205-20 303 7 111 31 232 24 362-20 87-29 165-31 235-6v147H0z" fill="#ffffff" opacity="0.72"/>

  <g filter="url(#shadow)">
    <path d="M188 191h250l51 55-125 50-223-47z" fill="#e7a75d"/>
    <path d="M141 249l223 47v186l-223-54z" fill="url(#box)"/>
    <path d="M364 296l125-50v182l-125 54z" fill="#8b4d1f"/>
    <path d="M141 249l125-52 223 49-125 50z" fill="url(#boxLight)"/>
    <path d="M266 197l96 22-125 49-96-19z" fill="#f7cf90" opacity="0.75"/>
    <path d="M294 281l45 9v185l-45-10z" fill="#f6d399" opacity="0.8"/>
    <path d="M392 285l49-20v179l-49 21z" fill="#7c431b" opacity="0.52"/>
  </g>

  <g filter="url(#shadow)">
    <path d="M533 245h197l41 43-97 39-180-38z" fill="#e7a75d"/>
    <path d="M494 289l180 38v143l-180-43z" fill="#c9792e"/>
    <path d="M674 327l97-39v139l-97 43z" fill="#8b4d1f"/>
    <path d="M494 289l97-41 180 40-97 39z" fill="#efb46c"/>
    <path d="M591 248l78 18-97 38-78-15z" fill="#f9d99f" opacity="0.76"/>
  </g>

  <g opacity="0.9">
    <rect x="92" y="103" width="158" height="48" rx="24" fill="#ffffff"/>
    <circle cx="124" cy="127" r="8" fill="#2563eb"/>
    <circle cx="154" cy="127" r="8" fill="#2563eb" opacity="0.55"/>
    <circle cx="184" cy="127" r="8" fill="#2563eb" opacity="0.32"/>
    <path d="M445 108c42-19 95-10 126 23 27 28 68 36 109 20" fill="none" stroke="#2563eb" stroke-width="12" stroke-linecap="round" opacity="0.22"/>
    <path d="M451 151c45-15 92-5 124 26 25 25 64 31 100 17" fill="none" stroke="#0f172a" stroke-width="10" stroke-linecap="round" opacity="0.14"/>
  </g>

  <g transform="translate(584 113)">
    <rect x="0" y="0" width="142" height="96" rx="12" fill="#ffffff" stroke="#bfdbfe" stroke-width="3"/>
    <path d="M28 30h86M28 51h65M28 72h48" stroke="#2563eb" stroke-width="8" stroke-linecap="round"/>
    <path d="M99 56l17 17 28-38" fill="none" stroke="#16a34a" stroke-width="9" stroke-linecap="round" stroke-linejoin="round"/>
  </g>

  <g transform="translate(88 372)">
    <rect x="0" y="0" width="142" height="74" rx="37" fill="#ffffff" stroke="#dbeafe" stroke-width="4"/>
    <circle cx="38" cy="37" r="17" fill="#eff6ff" stroke="#bfdbfe" stroke-width="4"/>
    <circle cx="77" cy="37" r="17" fill="#eff6ff" stroke="#bfdbfe" stroke-width="4"/>
    <circle cx="116" cy="37" r="17" fill="#eff6ff" stroke="#bfdbfe" stroke-width="4"/>
  </g>

  <g transform="translate(628 385)">
    <rect x="0" y="0" width="152" height="44" rx="22" fill="#fef3c7" stroke="#f59e0b" stroke-width="4"/>
    <path d="M34 14v16M56 14v16M78 14v16M100 14v16M122 14v16" stroke="#92400e" stroke-width="5" stroke-linecap="round"/>
  </g>
</svg>
